<?xml version="1.0" encoding="utf-8"?>
<!-- Generator: Adobe Illustrator 16.0.0, SVG Export Plug-In . SVG Version: 6.00 Build 0)  -->
<!DOCTYPE svg PUBLIC "-//W3C//DTD SVG 1.1//EN" "http://www.w3.org/Graphics/SVG/1.1/DTD/svg11.dtd">
<svg version="1.1" id="Layer_1" xmlns="http://www.w3.org/2000/svg" xmlns:xlink="http://www.w3.org/1999/xlink" x="0px" y="0px"
	 width="400px" height="400px" viewBox="0 0 400 400" enable-background="new 0 0 400 400" xml:space="preserve">
<path fill="#FFF" d="M318.056,0.5H82.639C37.191,0.5,0.348,42.357,0.348,93.991v213.018c0,51.634,36.843,93.491,82.292,93.491
	h235.417c45.449,0,82.292-41.857,82.292-93.491V93.991C400.348,42.357,363.505,0.5,318.056,0.5z M324.732,342.072l-42.67,38.396
	c-1.188,1.625-3.106,2.753-5.274,2.753c-2.123,0-4.5-1.188-5.697-2.753l-40.05-38.391c-1.882-1.151-3.138-3.221-3.138-5.591
	c0-3.61,2.93-6.545,6.551-6.545h17.819V224.368H148.722v101.788c0,3.612-2.965,6.547-6.585,6.547h-37.928
	c-3.615,0-6.483-2.935-6.483-6.547L97.572,71.057H79.691c-3.616,0-6.552-2.935-6.552-6.547c0-2.363,1.249-4.432,3.122-5.582
	l42.671-38.396c1.188-1.625,3.107-2.755,5.274-2.755c2.123,0,4.5,1.19,5.698,2.755l40.05,38.389c1.881,1.152,3.137,3.22,3.137,5.59
	c0,3.612-2.931,6.547-6.55,6.547h-17.821v102.25l103.555,0.014V74.844c0-3.613,2.965-6.547,6.585-6.547h37.928
	c3.615,0,6.483,2.934,6.483,6.547l0.152,255.1h17.881c3.615,0,6.551,2.935,6.551,6.545
	C327.855,338.851,326.605,340.921,324.732,342.072z"/>
</svg>
